<svg width="16" height="16" viewBox="0 0 16 16" fill="none" xmlns="http://www.w3.org/2000/svg">
<ellipse cx="7.90361" cy="8" rx="7.90361" ry="8" fill="white"/>
<path d="M6.14014 9.37891H7.88037C7.85173 9.91602 7.70492 10.3905 7.43994 10.8022C7.17855 11.2104 6.8151 11.5309 6.34961 11.7637C5.88411 11.9928 5.33089 12.1074 4.68994 12.1074C4.1779 12.1074 3.71956 12.0197 3.31494 11.8442C2.91032 11.6688 2.56657 11.4181 2.28369 11.0923C2.00439 10.7629 1.78955 10.3672 1.63916 9.90527C1.49235 9.43978 1.41895 8.9152 1.41895 8.33154V7.85352C1.41895 7.26986 1.49593 6.74528 1.6499 6.27979C1.80387 5.81429 2.02409 5.41683 2.31055 5.0874C2.59701 4.75798 2.94076 4.50553 3.3418 4.33008C3.74284 4.15462 4.19043 4.06689 4.68457 4.06689C5.35059 4.06689 5.91276 4.18685 6.37109 4.42676C6.82943 4.66667 7.18392 4.99609 7.43457 5.41504C7.6888 5.83398 7.84098 6.31201 7.89111 6.84912H6.14551C6.13118 6.54476 6.07389 6.28874 5.97363 6.08105C5.87337 5.86979 5.7194 5.71045 5.51172 5.60303C5.30404 5.49561 5.02832 5.44189 4.68457 5.44189C4.43392 5.44189 4.2137 5.48844 4.02393 5.58154C3.83773 5.67464 3.68197 5.81966 3.55664 6.0166C3.4349 6.21354 3.34359 6.46419 3.28271 6.76855C3.22184 7.06934 3.19141 7.42741 3.19141 7.84277V8.33154C3.19141 8.74333 3.21826 9.09961 3.27197 9.40039C3.32568 9.70117 3.41162 9.95003 3.52979 10.147C3.65153 10.3439 3.80729 10.4907 3.99707 10.5874C4.18685 10.6841 4.41781 10.7324 4.68994 10.7324C5.00146 10.7324 5.26107 10.6841 5.46875 10.5874C5.67643 10.4871 5.83577 10.3368 5.94678 10.1362C6.05778 9.93571 6.12223 9.68327 6.14014 9.37891ZM10.6035 4.17969V12H8.85254V4.17969H10.6035ZM13.6812 7.47754V8.83105H10.1147V7.47754H13.6812ZM14.0249 4.17969V5.53857H10.1147V4.17969H14.0249Z" fill="black"/>
</svg>
